<svg width="495" height="51" viewBox="0 0 495 51" fill="none" xmlns="http://www.w3.org/2000/svg">
<path d="M0.751953 39H14.684C21.758 39 27.806 34.788 27.806 28.146C27.806 22.692 24.35 20.208 19.868 18.642C23.54 17.346 26.456 14.808 26.456 10.326C26.456 4.97997 21.812 1.19997 14.576 1.19997H0.751953V39ZM5.28795 20.856H13.982C19.166 20.856 23.486 22.746 23.486 28.038C23.486 33.384 19.166 35.22 13.982 35.22H5.28795V20.856ZM5.28795 4.97997H14.252C18.68 4.97997 22.136 6.76197 22.136 11.028C22.136 15.402 18.68 17.076 14.252 17.076H5.28795V4.97997Z" fill="black"/>
<path d="M56.2703 39C54.9743 36.84 54.6503 35.382 54.6503 32.304V20.208C54.6503 14.754 51.1943 11.46 44.1203 11.46C37.7483 11.46 33.8063 15.024 33.8063 19.074C33.8063 19.83 33.9683 20.532 34.2383 21.234L37.9103 19.992C37.7483 19.56 37.8023 19.452 37.8023 19.182C37.8023 16.968 39.8543 15.024 44.1203 15.024C48.0623 15.024 50.4383 16.536 50.4383 20.208V21.396L41.5283 22.854C36.3983 23.718 32.2943 26.418 32.2943 31.602C32.2943 36.3 35.8583 39.756 41.3123 39.756C45.4163 39.756 48.7643 37.596 50.4383 33.708C50.4383 36.732 51.2483 37.974 52.0583 39H56.2703ZM41.7983 35.976C38.5583 35.976 36.6143 34.194 36.6143 31.386C36.6143 28.632 38.5583 26.796 42.2843 26.148L50.4383 24.744V25.554C50.4383 30.954 47.4683 35.976 41.7983 35.976Z" fill="black"/>
<path d="M65.9548 18.534C65.9548 16.158 68.3308 15.024 71.3548 15.024C74.3788 15.024 77.0248 16.212 78.4828 19.83L81.7228 17.94C80.0488 13.836 76.8628 11.46 71.3008 11.46C66.3868 11.46 62.0668 14.106 62.0668 18.696C62.0668 23.232 66.1708 25.662 71.0308 26.526C75.7288 27.39 77.8888 28.686 77.8888 31.332C77.8888 34.356 75.6208 36.084 71.9488 36.084C68.0068 36.084 65.4148 33.492 64.0648 29.82L60.5548 31.98C62.1748 36.192 66.0088 39.756 71.9488 39.756C78.5908 39.756 82.1008 35.706 82.1008 31.17C82.1008 26.634 78.7528 24.366 73.0828 23.286C68.7628 22.476 65.9548 21.288 65.9548 18.534Z" fill="black"/>
<path d="M88.5922 39H92.8042V12.216H88.5922V39ZM88.1602 7.57197H93.2362V2.27997H88.1602V7.57197Z" fill="black"/>
<path d="M104.345 18.534C104.345 16.158 106.721 15.024 109.745 15.024C112.769 15.024 115.415 16.212 116.873 19.83L120.113 17.94C118.439 13.836 115.253 11.46 109.691 11.46C104.777 11.46 100.457 14.106 100.457 18.696C100.457 23.232 104.561 25.662 109.421 26.526C114.119 27.39 116.279 28.686 116.279 31.332C116.279 34.356 114.011 36.084 110.339 36.084C106.397 36.084 103.805 33.492 102.455 29.82L98.9455 31.98C100.565 36.192 104.399 39.756 110.339 39.756C116.981 39.756 120.491 35.706 120.491 31.17C120.491 26.634 117.143 24.366 111.473 23.286C107.153 22.476 104.345 21.288 104.345 18.534Z" fill="black"/>
<path d="M172.201 39H175.333V20.046H157.513V23.826H170.797C169.771 30.9 165.991 35.76 158.971 35.76C150.763 35.76 145.471 29.334 145.471 20.1C145.471 10.866 151.843 4.43997 159.241 4.43997C164.425 4.43997 168.367 6.49197 171.607 12.108L175.063 9.62397C172.201 4.00797 166.693 0.44397 159.295 0.44397C149.251 0.44397 140.827 8.81397 140.827 20.1C140.827 31.386 148.225 39.756 158.809 39.756C164.803 39.756 168.799 36.786 170.905 32.466L172.201 39Z" fill="black"/>
<path d="M197.074 11.73C196.48 11.568 195.67 11.46 195.238 11.46C191.404 11.46 188.92 13.836 187.462 17.076V12.216H183.25V39H187.462V24.366C187.462 18.912 190.594 15.348 194.266 15.348C195.022 15.348 195.724 15.456 196.372 15.672L197.074 11.73Z" fill="black"/>
<path d="M226.894 25.608C226.894 16.482 219.604 11.46 212.908 11.46C206.212 11.46 198.922 16.482 198.922 25.608C198.922 34.734 206.212 39.756 212.908 39.756C219.604 39.756 226.894 34.734 226.894 25.608ZM212.908 35.976C207.508 35.976 203.242 31.602 203.242 25.608C203.242 19.614 207.508 15.24 212.908 15.24C218.308 15.24 222.574 19.614 222.574 25.608C222.574 31.602 218.308 35.976 212.908 35.976Z" fill="black"/>
<path d="M229.755 15.564H234.237V32.574C234.237 38.028 237.477 39.756 240.933 39.756C242.607 39.756 243.579 39.648 244.497 39.27L244.119 35.76C243.525 35.922 242.715 36.084 242.121 36.084C238.989 36.084 238.449 34.626 238.449 31.764V15.564H244.605V12.216H238.449V4.97997H234.237V12.216H229.755V15.564Z" fill="black"/>
<path d="M274.317 26.31V24.852C274.317 17.076 269.457 11.46 261.411 11.46C253.905 11.46 247.965 17.346 247.965 25.608C247.965 33.87 253.959 39.756 261.249 39.756C267.297 39.756 270.969 36.84 273.507 31.926L270.429 30.09C268.701 33.546 266.271 36.192 261.411 36.192C255.849 36.192 252.447 31.926 252.177 26.31H274.317ZM261.411 15.024C265.569 15.024 269.835 17.832 270.105 22.854H252.501C253.527 18.264 256.605 15.024 261.411 15.024Z" fill="black"/>
<path d="M283.959 18.534C283.959 16.158 286.335 15.024 289.359 15.024C292.383 15.024 295.029 16.212 296.487 19.83L299.727 17.94C298.053 13.836 294.867 11.46 289.305 11.46C284.391 11.46 280.071 14.106 280.071 18.696C280.071 23.232 284.175 25.662 289.035 26.526C293.733 27.39 295.893 28.686 295.893 31.332C295.893 34.356 293.625 36.084 289.953 36.084C286.011 36.084 283.419 33.492 282.069 29.82L278.559 31.98C280.179 36.192 284.013 39.756 289.953 39.756C296.595 39.756 300.105 35.706 300.105 31.17C300.105 26.634 296.757 24.366 291.087 23.286C286.767 22.476 283.959 21.288 283.959 18.534Z" fill="black"/>
<path d="M330.904 12.216H326.692V17.022C325.234 13.566 321.778 11.46 317.512 11.46C310.33 11.46 304.444 17.022 304.444 25.608C304.444 34.194 310.33 39.756 317.458 39.756C321.616 39.756 325.018 37.488 326.692 34.41V50.016H330.904V12.216ZM317.89 15.348C323.074 15.348 327.016 19.29 327.016 25.608C327.016 31.926 323.074 35.868 317.89 35.868C312.706 35.868 308.764 31.926 308.764 25.608C308.764 19.29 312.706 15.348 317.89 15.348Z" fill="black"/>
<path d="M338.87 29.874C338.87 37.002 343.514 39.756 348.374 39.756C352.316 39.756 355.502 37.758 357.284 34.302V39H361.496V12.216H357.284V27.228C357.284 32.574 353.558 35.976 349.4 35.976C345.728 35.976 343.082 33.924 343.082 29.658V12.216H338.87V29.874Z" fill="black"/>
<path d="M394.235 26.31V24.852C394.235 17.076 389.375 11.46 381.329 11.46C373.823 11.46 367.883 17.346 367.883 25.608C367.883 33.87 373.877 39.756 381.167 39.756C387.215 39.756 390.887 36.84 393.425 31.926L390.347 30.09C388.619 33.546 386.189 36.192 381.329 36.192C375.767 36.192 372.365 31.926 372.095 26.31H394.235ZM381.329 15.024C385.487 15.024 389.753 17.832 390.023 22.854H372.419C373.445 18.264 376.523 15.024 381.329 15.024Z" fill="black"/>
<path d="M416.299 39H420.835V24.744H432.175C440.167 24.744 445.243 20.1 445.243 12.972C445.243 5.84397 440.167 1.19997 432.175 1.19997H416.299V39ZM420.835 5.19597H431.959C437.413 5.19597 440.707 7.73397 440.707 12.972C440.707 18.21 437.413 20.748 431.959 20.748H420.835V5.19597Z" fill="black"/>
<path d="M464.754 11.73C464.16 11.568 463.35 11.46 462.918 11.46C459.084 11.46 456.6 13.836 455.142 17.076V12.216H450.93V39H455.142V24.366C455.142 18.912 458.274 15.348 461.946 15.348C462.702 15.348 463.404 15.456 464.052 15.672L464.754 11.73Z" fill="black"/>
<path d="M494.574 25.608C494.574 16.482 487.284 11.46 480.588 11.46C473.892 11.46 466.602 16.482 466.602 25.608C466.602 34.734 473.892 39.756 480.588 39.756C487.284 39.756 494.574 34.734 494.574 25.608ZM480.588 35.976C475.188 35.976 470.922 31.602 470.922 25.608C470.922 19.614 475.188 15.24 480.588 15.24C485.988 15.24 490.254 19.614 490.254 25.608C490.254 31.602 485.988 35.976 480.588 35.976Z" fill="black"/>
</svg>
