<svg width="304" height="42" viewBox="0 0 304 42" fill="none" xmlns="http://www.w3.org/2000/svg">
<path d="M0.425781 41V38.9961L5.06641 38.0732C5.75195 37.9854 6.09473 37.6426 6.09473 37.0449V8.22559C6.09473 7.66309 5.75195 7.33789 5.06641 7.25L0.425781 6.32715V4.32324H17.0107V6.32715L12.4229 7.25C11.7373 7.33789 11.3945 7.66309 11.3945 8.22559V21.1719H29.2188V8.22559C29.2188 7.92676 29.1484 7.70703 29.0078 7.56641C28.8672 7.4082 28.5947 7.30273 28.1904 7.25L23.6025 6.32715V4.32324H40.2402V6.32715L35.5732 7.25C34.8877 7.33789 34.5449 7.66309 34.5449 8.22559V37.0449C34.5449 37.6426 34.8877 37.9854 35.5732 38.0732L40.2402 38.9961V41H23.6025V38.9961L28.1904 38.0732C28.5947 38.0205 28.8672 37.9238 29.0078 37.7832C29.1484 37.625 29.2188 37.3789 29.2188 37.0449V23.3867H11.3945V37.0449C11.3945 37.3613 11.4648 37.5986 11.6055 37.7568C11.7637 37.915 12.0361 38.0205 12.4229 38.0732L17.0107 38.9961V41H0.425781Z" fill="black"/>
<path d="M45.25 35.7002C45.25 30.2861 50.3477 26.8848 60.543 25.4961V21.5146C60.543 19.6865 60.1211 18.3418 59.2773 17.4805C58.4336 16.6016 57.1416 16.1621 55.4014 16.1621C54.1885 16.1621 53.0898 16.373 52.1055 16.7949C51.1387 17.2168 50.3828 17.7617 49.8379 18.4297H49.8906C50.6289 18.4297 51.2354 18.6846 51.71 19.1943C52.2021 19.6865 52.4482 20.3281 52.4482 21.1191C52.4482 21.9805 52.167 22.6748 51.6045 23.2021C51.042 23.7295 50.3125 23.9932 49.416 23.9932C48.4844 23.9932 47.7373 23.6855 47.1748 23.0703C46.6123 22.4551 46.3311 21.6289 46.3311 20.5918C46.3311 18.9043 47.2363 17.4189 49.0469 16.1357C50.8574 14.8525 53.0723 14.2109 55.6914 14.2109C58.7676 14.2109 61.1143 14.9141 62.7314 16.3203C64.3662 17.709 65.1836 19.7832 65.1836 22.543C65.1836 23.5449 65.166 25.751 65.1309 29.1611C65.0957 32.5537 65.0781 34.7686 65.0781 35.8057C65.0781 37.0537 65.2275 37.9238 65.5264 38.416C65.8428 38.9082 66.3262 39.1543 66.9766 39.1543C67.627 39.1543 68.1279 38.8379 68.4795 38.2051C68.8486 37.5723 69.1562 36.5088 69.4023 35.0146L70.958 35.1201C70.7119 37.3174 70.2021 38.9082 69.4287 39.8926C68.6729 40.877 67.4951 41.3691 65.8955 41.3691C63.3115 41.3691 61.7383 40.0068 61.1758 37.2822C60.332 38.6357 59.1367 39.7256 57.5898 40.5518C56.0605 41.3604 54.3818 41.7646 52.5537 41.7646C50.2861 41.7646 48.502 41.2197 47.2012 40.1299C45.9004 39.04 45.25 37.5635 45.25 35.7002ZM50.2334 35.2783C50.2334 36.5088 50.5762 37.4932 51.2617 38.2314C51.9473 38.9697 52.9141 39.3389 54.1621 39.3389C55.9023 39.3389 57.3877 38.6973 58.6182 37.4141C59.8662 36.1133 60.4902 34.5576 60.4902 32.7471V27.3945C59.6289 27.5527 58.8906 27.7021 58.2754 27.8428C57.6602 27.9658 56.9658 28.1416 56.1924 28.3701C55.4365 28.5986 54.7861 28.8447 54.2412 29.1084C53.7139 29.3545 53.1777 29.6797 52.6328 30.084C52.1055 30.4883 51.6748 30.9277 51.3408 31.4023C51.0068 31.877 50.7344 32.4482 50.5234 33.1162C50.3301 33.7666 50.2334 34.4873 50.2334 35.2783Z" fill="black"/>
<path d="M72.7773 17.7705V16.1621L80.4502 14.2637L81.9531 14.6064L81.4785 24.3096C81.7949 22.4111 82.2783 20.7324 82.9287 19.2734C83.5791 17.8145 84.4756 16.6104 85.6182 15.6611C86.7783 14.6943 88.0967 14.2109 89.5732 14.2109C90.874 14.2109 91.8936 14.5625 92.6318 15.2656C93.3701 15.9688 93.7393 16.8828 93.7393 18.0078C93.7393 19.0098 93.4229 19.8271 92.79 20.46C92.1748 21.0928 91.3926 21.4092 90.4434 21.4092C89.5117 21.4092 88.7559 21.1279 88.1758 20.5654C87.5957 20.0029 87.3057 19.2734 87.3057 18.377C87.3057 17.3574 87.666 16.6191 88.3867 16.1621C87.4023 16.3906 86.5146 16.9443 85.7236 17.8232C84.9326 18.6846 84.291 19.7393 83.7988 20.9873C83.3242 22.2178 82.9551 23.5449 82.6914 24.9688C82.4453 26.3926 82.3223 27.834 82.3223 29.293V37.2295C82.3223 37.5811 82.3926 37.8535 82.5332 38.0469C82.6738 38.2227 82.9287 38.3457 83.2979 38.416L87.2529 39.207V41H73.3574V39.207L76.8379 38.3633C77.3652 38.2227 77.6289 37.8623 77.6289 37.2822V19.0098C77.6289 18.6934 77.5762 18.4736 77.4707 18.3506C77.3652 18.21 77.1367 18.1309 76.7852 18.1133L72.7773 17.7705Z" fill="black"/>
<path d="M96.877 17.7705V16.1621L104.55 14.2637L106.053 14.6064L105.578 24.3096C105.895 22.4111 106.378 20.7324 107.028 19.2734C107.679 17.8145 108.575 16.6104 109.718 15.6611C110.878 14.6943 112.196 14.2109 113.673 14.2109C114.974 14.2109 115.993 14.5625 116.731 15.2656C117.47 15.9688 117.839 16.8828 117.839 18.0078C117.839 19.0098 117.522 19.8271 116.89 20.46C116.274 21.0928 115.492 21.4092 114.543 21.4092C113.611 21.4092 112.855 21.1279 112.275 20.5654C111.695 20.0029 111.405 19.2734 111.405 18.377C111.405 17.3574 111.766 16.6191 112.486 16.1621C111.502 16.3906 110.614 16.9443 109.823 17.8232C109.032 18.6846 108.391 19.7393 107.898 20.9873C107.424 22.2178 107.055 23.5449 106.791 24.9688C106.545 26.3926 106.422 27.834 106.422 29.293V37.2295C106.422 37.5811 106.492 37.8535 106.633 38.0469C106.773 38.2227 107.028 38.3457 107.397 38.416L111.353 39.207V41H97.457V39.207L100.938 38.3633C101.465 38.2227 101.729 37.8623 101.729 37.2822V19.0098C101.729 18.6934 101.676 18.4736 101.57 18.3506C101.465 18.21 101.236 18.1309 100.885 18.1133L96.877 17.7705Z" fill="black"/>
<path d="M121.188 17.8232V16.2676L129.73 14.2637L131.339 14.5273L130.97 20.5391V37.2822C130.97 37.8623 131.251 38.2227 131.813 38.3633L135.347 39.207V41H121.768V39.207L125.354 38.3633C125.916 38.2227 126.197 37.8623 126.197 37.2822V19.0889C126.197 18.7725 126.136 18.5439 126.013 18.4033C125.907 18.2627 125.67 18.1836 125.301 18.166L121.188 17.8232ZM124.325 4.37598C124.325 3.32129 124.668 2.47754 125.354 1.84473C126.039 1.19434 126.883 0.869141 127.885 0.869141C128.957 0.869141 129.827 1.18555 130.495 1.81836C131.163 2.45117 131.497 3.30371 131.497 4.37598C131.497 5.46582 131.163 6.33594 130.495 6.98633C129.827 7.63672 128.957 7.96191 127.885 7.96191C126.9 7.96191 126.057 7.62793 125.354 6.95996C124.668 6.27441 124.325 5.41309 124.325 4.37598Z" fill="black"/>
<path d="M138.959 27.9746C138.959 26.1641 139.196 24.4941 139.671 22.9648C140.163 21.4355 140.813 20.1436 141.622 19.0889C142.431 18.0342 143.362 17.1377 144.417 16.3994C145.489 15.6436 146.597 15.0898 147.739 14.7383C148.899 14.3867 150.077 14.2109 151.272 14.2109C154.419 14.2109 156.871 15.1162 158.629 16.9268C160.387 18.7197 161.266 21.0928 161.266 24.0459C161.266 24.9424 161.151 26.0234 160.923 27.2891H144.232V27.9746C144.232 31.4727 144.953 34.1973 146.395 36.1484C147.854 38.082 149.761 39.0488 152.116 39.0488C155.122 39.0488 157.732 37.6689 159.947 34.9092L161.371 35.9902C160.738 36.8516 160.114 37.5898 159.499 38.2051C158.884 38.8203 158.163 39.418 157.337 39.998C156.511 40.5605 155.57 40.9824 154.516 41.2637C153.461 41.5625 152.31 41.7119 151.062 41.7119C149.532 41.7119 148.047 41.4131 146.605 40.8154C145.182 40.2178 143.89 39.3652 142.729 38.2578C141.587 37.1504 140.673 35.709 139.987 33.9336C139.302 32.1406 138.959 30.1543 138.959 27.9746ZM144.364 25.4961L156.124 24.8105L156.229 23.9932C156.265 23.6416 156.282 23.1143 156.282 22.4111C156.282 20.5303 155.869 19.0186 155.043 17.876C154.217 16.7334 152.925 16.1621 151.167 16.1621C149.427 16.1621 147.924 16.918 146.658 18.4297C145.41 19.9414 144.646 22.2969 144.364 25.4961Z" fill="black"/>
<path d="M164.72 17.1377V15.292L168.438 14.7119C169.369 14.5537 170.072 14.2373 170.547 13.7627C171.039 13.2881 171.399 12.6113 171.628 11.7324C171.646 11.627 171.733 11.2227 171.892 10.5195C172.067 9.79883 172.252 9.06055 172.445 8.30469C172.639 7.53125 172.744 7.0918 172.762 6.98633H174.977L174.687 14.9756H183.546V16.9268L174.687 17.4014V34.9619C174.687 37.6162 175.768 38.9434 177.93 38.9434C178.967 38.9434 179.793 38.6094 180.408 37.9414C181.023 37.2734 181.568 36.166 182.043 34.6191L183.836 35.1201C182.816 39.5146 180.382 41.7119 176.532 41.7119C174.493 41.7119 172.876 41.1758 171.681 40.1035C170.485 39.0137 169.888 37.2822 169.888 34.9092V17.5596L164.72 17.1377Z" fill="black"/>
<path d="M196.94 13.3408L197.23 4.32324H230.058L230.374 13.3408H228.054L226.551 9.62305C226.34 9.00781 226.111 8.50684 225.865 8.12012C225.637 7.7334 225.399 7.42578 225.153 7.19727C224.907 6.96875 224.573 6.80176 224.151 6.69629C223.747 6.57324 223.352 6.50293 222.965 6.48535C222.596 6.4502 222.06 6.43262 221.356 6.43262H216.294V37.0449C216.294 37.3613 216.373 37.5986 216.531 37.7568C216.689 37.915 216.971 38.0205 217.375 38.0732L222.438 38.9961V41H204.771V38.9961L209.966 38.0732C210.651 37.9854 210.994 37.6426 210.994 37.0449V6.43262H205.905C205.202 6.43262 204.657 6.4502 204.271 6.48535C203.901 6.50293 203.506 6.57324 203.084 6.69629C202.68 6.80176 202.354 6.96875 202.108 7.19727C201.862 7.42578 201.616 7.7334 201.37 8.12012C201.124 8.50684 200.896 9.00781 200.685 9.62305L199.155 13.3408H196.94Z" fill="black"/>
<path d="M229.662 27.9746C229.662 26.1641 229.899 24.4941 230.374 22.9648C230.866 21.4355 231.517 20.1436 232.325 19.0889C233.134 18.0342 234.065 17.1377 235.12 16.3994C236.192 15.6436 237.3 15.0898 238.442 14.7383C239.603 14.3867 240.78 14.2109 241.976 14.2109C245.122 14.2109 247.574 15.1162 249.332 16.9268C251.09 18.7197 251.969 21.0928 251.969 24.0459C251.969 24.9424 251.854 26.0234 251.626 27.2891H234.936V27.9746C234.936 31.4727 235.656 34.1973 237.098 36.1484C238.557 38.082 240.464 39.0488 242.819 39.0488C245.825 39.0488 248.436 37.6689 250.65 34.9092L252.074 35.9902C251.441 36.8516 250.817 37.5898 250.202 38.2051C249.587 38.8203 248.866 39.418 248.04 39.998C247.214 40.5605 246.273 40.9824 245.219 41.2637C244.164 41.5625 243.013 41.7119 241.765 41.7119C240.235 41.7119 238.75 41.4131 237.309 40.8154C235.885 40.2178 234.593 39.3652 233.433 38.2578C232.29 37.1504 231.376 35.709 230.69 33.9336C230.005 32.1406 229.662 30.1543 229.662 27.9746ZM235.067 25.4961L246.827 24.8105L246.933 23.9932C246.968 23.6416 246.985 23.1143 246.985 22.4111C246.985 20.5303 246.572 19.0186 245.746 17.876C244.92 16.7334 243.628 16.1621 241.87 16.1621C240.13 16.1621 238.627 16.918 237.361 18.4297C236.113 19.9414 235.349 22.2969 235.067 25.4961Z" fill="black"/>
<path d="M254.685 41V39.2598L257.98 38.4688C258.842 38.2754 259.501 37.8447 259.958 37.1768L266.655 27.6582L260.775 18.6406C260.547 18.2539 260.31 17.9814 260.063 17.8232C259.835 17.6475 259.519 17.5068 259.114 17.4014L255.766 16.6367V14.9756H269.134V16.6367L266.866 17.1377C266.374 17.2607 266.093 17.4365 266.022 17.665C265.952 17.8936 266.058 18.2363 266.339 18.6934L270.215 25.0742L274.486 18.6934C274.68 18.3945 274.776 18.1309 274.776 17.9023C274.776 17.5684 274.557 17.3486 274.117 17.2432L272.061 16.6895V14.9756H281.948V16.6367L278.969 17.4541C278.195 17.6475 277.545 18.0957 277.018 18.7988L271.296 26.7881L278.23 37.2822C278.67 37.9502 279.206 38.3457 279.839 38.4688L283.135 39.2598V41H269.187V39.2598L271.955 38.7324C272.447 38.627 272.729 38.46 272.799 38.2314C272.869 37.9854 272.764 37.6338 272.482 37.1768L267.736 29.3984L262.568 37.2822C262.393 37.5635 262.305 37.8008 262.305 37.9941C262.305 38.3105 262.533 38.5039 262.99 38.5742L265.68 39.207V41H254.685Z" fill="black"/>
<path d="M284.216 17.1377V15.292L287.934 14.7119C288.865 14.5537 289.568 14.2373 290.043 13.7627C290.535 13.2881 290.896 12.6113 291.124 11.7324C291.142 11.627 291.229 11.2227 291.388 10.5195C291.563 9.79883 291.748 9.06055 291.941 8.30469C292.135 7.53125 292.24 7.0918 292.258 6.98633H294.473L294.183 14.9756H303.042V16.9268L294.183 17.4014V34.9619C294.183 37.6162 295.264 38.9434 297.426 38.9434C298.463 38.9434 299.289 38.6094 299.904 37.9414C300.52 37.2734 301.064 36.166 301.539 34.6191L303.332 35.1201C302.312 39.5146 299.878 41.7119 296.028 41.7119C293.989 41.7119 292.372 41.1758 291.177 40.1035C289.981 39.0137 289.384 37.2822 289.384 34.9092V17.5596L284.216 17.1377Z" fill="black"/>
</svg>
