<svg width="383" height="49" viewBox="0 0 383 49" fill="none" xmlns="http://www.w3.org/2000/svg">
<path d="M54.54 1.27995V0.199951H39.474L28.62 25.364L17.28 0.199951H1.08V1.27995C6.21 1.49595 7.398 2.89995 7.398 9.37995V20.72C7.398 29.522 7.182 33.842 0 36.92V38H15.876V36.92C8.694 33.842 8.478 29.522 8.478 20.72V4.84395L23.706 38.54H24.138L38.502 5.27595V28.82C38.502 35.3 37.314 36.704 32.184 36.92V38H54.54V36.92C49.41 36.704 48.222 35.3 48.222 28.82V9.37995C48.222 2.89995 49.41 1.49595 54.54 1.27995Z" fill="black"/>
<path d="M89.8231 27.794C89.8231 32.276 88.5271 34.706 87.0151 34.706C85.5571 34.706 84.3691 33.41 84.3691 30.656V18.236C84.3691 10.352 77.9971 8.29995 71.5711 8.29995C61.9051 8.29995 57.7471 11.918 57.7471 15.374C57.7471 18.182 60.5551 20.612 68.4931 20.342C67.1431 18.884 66.5491 16.454 66.5491 14.726C66.5491 11.81 68.2231 9.21795 71.1391 9.21795C74.7571 9.21795 75.6211 13.808 75.6211 17.156V19.532C63.5791 23.474 57.4771 26.606 57.4771 32.168C57.4771 36.38 61.0411 38.54 64.6591 38.54C69.4651 38.54 74.0551 34.868 75.6211 27.686V30.71C75.6211 35.246 78.4831 38.486 83.2891 38.486C88.5271 38.486 90.9031 34.49 90.9031 27.794H89.8231ZM69.3031 32.87C68.1151 32.87 66.4411 31.844 66.4411 29.468C66.4411 25.85 70.4371 22.502 75.6211 20.396V22.232C75.6211 30.71 70.7611 32.87 69.3031 32.87Z" fill="black"/>
<path d="M106.957 38.54C113.383 38.54 118.945 34.976 120.295 26.012L119.593 25.796C118.567 30.17 115.705 32.978 111.331 32.978C105.985 32.978 101.557 28.874 101.557 20.666C101.557 13.97 104.473 9.37995 108.091 9.37995C110.791 9.37995 111.871 11.648 111.871 14.24C111.871 16.508 111.061 19.046 109.711 20.666C115.057 20.666 118.621 19.262 118.621 15.05C118.621 11.54 115.435 8.29995 108.361 8.29995C99.0731 8.29995 92.3231 14.834 92.3231 24.068C92.3231 33.626 99.5051 38.54 106.957 38.54Z" fill="black"/>
<path d="M154.07 31.574L145.754 17.75C153.044 11.54 155.42 10.19 159.524 9.91995V8.83995H140.948V9.91995C145.376 10.244 150.452 12.188 141.704 19.478L134.792 25.256V0.199951H121.022V1.27995C125.126 1.60395 125.882 2.84595 125.882 6.67995V31.52C125.882 35.354 125.126 36.596 121.022 36.92V38H139.652V36.92C135.548 36.596 134.792 35.354 134.792 31.52V27.2L139.274 23.312L144.458 31.898C147.374 36.704 146.888 36.596 142.946 36.92V38H162.602V36.92C158.552 36.65 156.662 35.894 154.07 31.574Z" fill="black"/>
<path d="M195.186 27.794C195.186 32.276 193.89 34.706 192.378 34.706C190.92 34.706 189.732 33.41 189.732 30.656V18.236C189.732 10.352 183.36 8.29995 176.934 8.29995C167.268 8.29995 163.11 11.918 163.11 15.374C163.11 18.182 165.918 20.612 173.856 20.342C172.506 18.884 171.912 16.454 171.912 14.726C171.912 11.81 173.586 9.21795 176.502 9.21795C180.12 9.21795 180.984 13.808 180.984 17.156V19.532C168.942 23.474 162.84 26.606 162.84 32.168C162.84 36.38 166.404 38.54 170.022 38.54C174.828 38.54 179.418 34.868 180.984 27.686V30.71C180.984 35.246 183.846 38.486 188.652 38.486C193.89 38.486 196.266 34.49 196.266 27.794H195.186ZM174.666 32.87C173.478 32.87 171.804 31.844 171.804 29.468C171.804 25.85 175.8 22.502 180.984 20.396V22.232C180.984 30.71 176.124 32.87 174.666 32.87Z" fill="black"/>
<path d="M215.274 8.83995V9.91995C220.404 10.352 221.376 15.32 218.892 21.098L215.166 29.792L209.226 17.696C206.472 12.242 206.904 10.244 212.736 9.91995V8.83995H193.62V9.91995C196.32 10.136 197.022 12.35 199.398 17.21L210.9 40.754C209.172 44.804 207.552 46.1 205.824 46.1C203.718 46.1 202.8 43.778 202.8 41.24C202.8 39.89 203.07 38.54 203.556 37.406C198.21 37.136 195.402 40.214 195.402 43.184C195.402 45.776 197.562 48.26 202.152 48.26C208.902 48.26 210.576 44.318 212.142 40.538L220.08 21.26C222.456 15.536 225.912 11.162 228.666 9.91995V8.83995H215.274Z" fill="black"/>
<path d="M275.359 18.182V18.02C284.647 17.318 289.183 14.024 289.183 8.89395C289.183 3.38595 283.945 0.199951 275.737 0.199951H250.033V1.27995C255.163 1.49595 256.351 2.89995 256.351 9.37995V28.82C256.351 35.3 255.163 36.704 250.033 36.92V38H276.493C285.457 38 291.397 34.22 291.397 27.956C291.397 22.178 286.915 18.506 275.359 18.182ZM270.499 1.27995C275.521 1.27995 279.031 3.87195 279.031 9.21795C279.031 14.834 275.251 17.966 269.797 17.966H266.071V1.27995H270.499ZM271.363 37.028H266.071V19.046H269.797C276.925 19.046 280.921 22.394 280.921 28.388C280.921 33.896 278.113 37.028 271.363 37.028Z" fill="black"/>
<path d="M310.272 8.29995C301.47 8.29995 294.612 14.078 294.612 23.312C294.612 32.654 301.47 38.54 310.272 38.54C319.074 38.54 325.932 32.654 325.932 23.312C325.932 14.078 319.074 8.29995 310.272 8.29995ZM310.272 37.46C306.438 37.46 304.494 32.006 304.494 23.312C304.494 14.726 306.438 9.37995 310.272 9.37995C314.106 9.37995 316.05 14.726 316.05 23.312C316.05 32.006 314.106 37.46 310.272 37.46Z" fill="black"/>
<path d="M340.614 31.52V0.199951H326.844V1.27995C330.948 1.60395 331.704 2.84595 331.704 6.67995V31.52C331.704 35.354 330.948 36.596 326.844 36.92V38H345.474V36.92C341.37 36.596 340.614 35.354 340.614 31.52Z" fill="black"/>
<path d="M377.489 31.52V0.199951H363.719V1.27995C367.823 1.60395 368.579 2.84595 368.579 6.67995V15.104C366.851 10.676 363.503 8.29995 358.751 8.29995C352.001 8.29995 346.925 14.348 346.925 23.42C346.925 32.492 352.001 38.54 358.751 38.54C363.503 38.54 366.851 36.164 368.579 31.79V38H382.349V36.92C378.245 36.596 377.489 35.354 377.489 31.52ZM362.369 35.3C358.967 35.3 356.267 31.952 356.267 23.42C356.267 14.942 358.913 11.54 362.261 11.54C366.041 11.54 368.579 14.888 368.579 23.42C368.579 31.898 366.095 35.3 362.369 35.3Z" fill="black"/>
</svg>
