<svg width="682" height="48" viewBox="0 0 682 48" fill="none" xmlns="http://www.w3.org/2000/svg">
<path d="M33.75 48V41.25H27V34.5H20.25V27.75H13.5V48H0V0.75H6.75V7.5H13.5V14.25H20.25V21H27V0.75H40.5V48H33.75Z" fill="black"/>
<path d="M74.25 41.25V7.5H60.75V41.25H74.25ZM54 48V41.25H47.25V7.5H54V0.75H81V7.5H87.75V41.25H81V48H54Z" fill="black"/>
<path d="M121.5 41.25H114.75V34.5H108V48H94.5V0.75H108V14.25H114.75V7.5H121.5V0.75H135V7.5H128.25V14.25H121.5V21H114.75V27.75H121.5V34.5H128.25V41.25H135V48H121.5V41.25Z" fill="black"/>
<path d="M141.75 48V0.75H155.25V48H141.75Z" fill="black"/>
<path d="M175.5 34.5V48H162V7.5H168.75V0.75H189V7.5H195.75V48H182.25V34.5H175.5ZM175.5 7.5V27.75H182.25V7.5H175.5Z" fill="black"/>
<path d="M229.5 0.75H256.5V7.5H236.25V41.25H256.5V48H229.5V41.25H222.75V7.5H229.5V0.75Z" fill="black"/>
<path d="M290.25 14.25V21H276.75V41.25H297V48H263.25V0.75H297V7.5H276.75V14.25H290.25Z" fill="black"/>
<path d="M303.75 0.75H317.25V41.25H330.75V48H303.75V0.75Z" fill="black"/>
<path d="M337.5 0.75H351V41.25H364.5V48H337.5V0.75Z" fill="black"/>
<path d="M391.5 27.75V7.5H384.75V27.75H391.5ZM398.25 0.75V7.5H405V27.75H398.25V34.5H384.75V48H371.25V0.75H398.25Z" fill="black"/>
<path d="M411.75 0.75H425.25V14.25H432V0.75H445.5V48H432V21H425.25V48H411.75V0.75Z" fill="black"/>
<path d="M479.25 41.25V7.5H465.75V41.25H479.25ZM459 48V41.25H452.25V7.5H459V0.75H486V7.5H492.75V41.25H486V48H459Z" fill="black"/>
<path d="M533.25 48V41.25H526.5V34.5H519.75V27.75H513V48H499.5V0.75H506.25V7.5H513V14.25H519.75V21H526.5V0.75H540V48H533.25Z" fill="black"/>
<path d="M573.75 14.25V21H560.25V41.25H580.5V48H546.75V0.75H580.5V7.5H560.25V14.25H573.75Z" fill="black"/>
<path d="M634.5 14.25V21H621V48H607.5V0.75H641.25V7.5H621V14.25H634.5Z" fill="black"/>
<path d="M654.75 0.75H681.75V7.5H661.5V41.25H681.75V48H654.75V41.25H648V7.5H654.75V0.75Z" fill="black"/>
</svg>
