<svg width="1440" height="28" viewBox="0 0 1440 28" fill="none" xmlns="http://www.w3.org/2000/svg">
<path d="M-2.33984 6.9082V21H3.57812C7.81641 21 10.1699 18.4414 10.1699 13.8125C10.1699 9.4082 7.77734 6.9082 3.57812 6.9082H-2.33984ZM1.24414 9.78906H2.93359C5.18945 9.78906 6.51758 11.2539 6.51758 13.8809C6.51758 16.6738 5.25781 18.1191 2.93359 18.1191H1.24414V9.78906ZM18.4199 21V6.9082H14.8359V21H18.4199ZM36.4258 15.1309V13.3145H30.3906V15.7754H32.9688L32.959 16.0098C32.8711 17.4355 31.7383 18.3926 30.1074 18.3926C28.0566 18.3926 26.7383 16.6934 26.7383 13.9004C26.7383 11.1562 27.9297 9.51562 29.9316 9.51562C31.3379 9.51562 32.3926 10.2676 32.7441 11.5078H36.2793C35.9277 8.5293 33.3691 6.52734 29.9316 6.52734C25.7031 6.52734 23.0859 9.35938 23.0859 13.9395C23.0859 18.5781 25.6934 21.3809 30.0293 21.3809C34.0137 21.3809 36.4258 19.0078 36.4258 15.1309ZM44.6855 21V6.9082H41.1016V21H44.6855ZM56.8809 21V9.78906H60.9531V6.9082H49.2441V9.78906H53.3066V21H56.8809ZM73.0605 21H76.9668L72.2305 6.9082H67.8457L63.1191 21H66.6738L67.582 17.9043H72.1816L73.0605 21ZM69.8086 10.082H69.9941L71.5078 15.3262H68.2656L69.8086 10.082ZM90.9102 18.041H84.9238V6.9082H81.3398V21H90.9102V18.041ZM102.43 6.9082V21H106.014V16.8691H108.387C111.521 16.8691 113.68 14.9062 113.68 11.9082C113.68 8.88086 111.629 6.9082 108.602 6.9082H102.43ZM106.014 9.66211H107.654C109.168 9.66211 110.057 10.4336 110.057 11.918C110.057 13.3828 109.158 14.1641 107.635 14.1641H106.014V9.66211ZM121.9 16.0684H123.756L126.168 21H130.191L127.379 15.541C128.922 14.8672 129.781 13.2852 129.781 11.5566C129.781 8.64648 127.809 6.9082 124.518 6.9082H118.316V21H121.9V16.0684ZM121.9 9.61328H124.01C125.289 9.61328 126.119 10.3848 126.119 11.5859C126.119 12.8066 125.338 13.5391 124.02 13.5391H121.9V9.61328ZM140.922 6.52734C136.684 6.52734 133.969 9.36914 133.969 13.9492C133.969 18.5391 136.664 21.3809 140.922 21.3809C145.16 21.3809 147.865 18.5391 147.865 13.9492C147.865 9.36914 145.15 6.52734 140.922 6.52734ZM140.922 9.49609C142.895 9.49609 144.213 11.2344 144.213 13.9492C144.213 16.6738 142.895 18.4121 140.922 18.4121C138.92 18.4121 137.621 16.6738 137.621 13.9492C137.621 11.2344 138.939 9.49609 140.922 9.49609ZM152.531 6.9082V21H158.449C162.688 21 165.041 18.4414 165.041 13.8125C165.041 9.4082 162.648 6.9082 158.449 6.9082H152.531ZM156.115 9.78906H157.805C160.061 9.78906 161.389 11.2539 161.389 13.8809C161.389 16.6738 160.129 18.1191 157.805 18.1191H156.115V9.78906ZM173.281 6.9082H169.707V16.1367C169.707 19.3008 172.109 21.3809 175.771 21.3809C179.434 21.3809 181.836 19.3008 181.836 16.1367V6.9082H178.262V15.7559C178.262 17.3965 177.373 18.3633 175.771 18.3633C174.18 18.3633 173.281 17.3965 173.281 15.7559V6.9082ZM193.309 21.3809C196.922 21.3809 199.539 19.1055 199.656 15.8828H196.219C196.014 17.3965 194.861 18.3926 193.318 18.3926C191.346 18.3926 190.145 16.6934 190.145 13.9395C190.145 11.1953 191.346 9.51562 193.309 9.51562C194.852 9.51562 196.014 10.5508 196.199 12.084H199.646C199.539 8.89062 196.854 6.52734 193.309 6.52734C189.08 6.52734 186.492 9.34961 186.492 13.9492C186.492 18.5488 189.09 21.3809 193.309 21.3809ZM210.924 21V9.78906H214.996V6.9082H203.287V9.78906H207.35V21H210.924ZM226.457 6.9082V21H232.375C236.613 21 238.967 18.4414 238.967 13.8125C238.967 9.4082 236.574 6.9082 232.375 6.9082H226.457ZM230.041 9.78906H231.73C233.986 9.78906 235.314 11.2539 235.314 13.8809C235.314 16.6738 234.055 18.1191 231.73 18.1191H230.041V9.78906ZM253.291 18.1191H247.217V15.2383H252.93V12.6016H247.217V9.78906H253.291V6.9082H243.633V21H253.291V18.1191ZM257.732 16.9863C257.791 19.7012 260.037 21.3809 263.602 21.3809C267.293 21.3809 269.539 19.6035 269.539 16.6641C269.539 14.4277 268.289 13.168 265.506 12.6309L263.689 12.2793C262.205 11.9863 261.58 11.5371 261.58 10.7656C261.58 9.82812 262.41 9.23242 263.67 9.23242C264.93 9.23242 265.877 9.92578 265.955 10.9219H269.266C269.207 8.31445 266.922 6.52734 263.621 6.52734C260.223 6.52734 258.016 8.33398 258.016 11.0879C258.016 13.3047 259.344 14.7109 261.922 15.1992L263.777 15.5703C265.389 15.8926 266.004 16.3125 266.004 17.0938C266.004 18.0215 265.086 18.666 263.748 18.666C262.264 18.666 261.238 18.0117 261.15 16.9863H257.732ZM277.838 21V6.9082H274.254V21H277.838ZM295.844 15.1309V13.3145H289.809V15.7754H292.387L292.377 16.0098C292.289 17.4355 291.156 18.3926 289.525 18.3926C287.475 18.3926 286.156 16.6934 286.156 13.9004C286.156 11.1562 287.348 9.51562 289.35 9.51562C290.756 9.51562 291.811 10.2676 292.162 11.5078H295.697C295.346 8.5293 292.787 6.52734 289.35 6.52734C285.121 6.52734 282.504 9.35938 282.504 13.9395C282.504 18.5781 285.111 21.3809 289.447 21.3809C293.432 21.3809 295.844 19.0078 295.844 15.1309ZM303.918 21V12.9922H304.104L309.992 21H312.834V6.9082H309.436V14.8379H309.25L303.381 6.9082H300.52V21H303.918Z" fill="white"/>
<path d="M661.797 6.9082V21H666.631C670.82 21 673.281 18.3926 673.281 13.9492C673.281 9.51562 670.811 6.9082 666.631 6.9082H661.797ZM663.555 8.49023H666.514C669.639 8.49023 671.484 10.5215 671.484 13.9688C671.484 17.4062 669.658 19.418 666.514 19.418H663.555V8.49023ZM680.086 21V6.9082H678.328V21H680.086ZM685.006 17.3184C685.191 19.75 687.252 21.332 690.24 21.332C693.463 21.332 695.504 19.6816 695.504 17.0938C695.504 15.0234 694.332 13.8906 691.412 13.1582L689.938 12.7676C687.994 12.2695 687.223 11.6348 687.223 10.5312C687.223 9.10547 688.463 8.16797 690.338 8.16797C692.096 8.16797 693.287 9.02734 693.531 10.4727H695.299C695.152 8.19727 693.121 6.57617 690.396 6.57617C687.418 6.57617 685.416 8.19727 685.416 10.5898C685.416 12.5918 686.52 13.7441 689.068 14.3887L690.875 14.8574C692.818 15.3457 693.697 16.1074 693.697 17.3086C693.697 18.7051 692.301 19.7305 690.406 19.7305C688.404 19.7305 686.998 18.793 686.783 17.3184H685.006ZM705.854 21V8.49023H710.395V6.9082H699.555V8.49023H704.096V21H705.854ZM716.867 15.4238H720.334L723.352 21H725.412L722.15 15.1504C723.918 14.5938 724.982 13.0703 724.982 11.1074C724.982 8.56836 723.205 6.9082 720.49 6.9082H715.109V21H716.867V15.4238ZM716.867 8.4707H720.256C722.072 8.4707 723.166 9.47656 723.166 11.166C723.166 12.8945 722.141 13.8613 720.334 13.8613H716.867V8.4707ZM731.934 21V6.9082H730.176V21H731.934ZM743.025 21C746.023 21 747.801 19.5254 747.801 17.0449C747.801 15.1797 746.58 13.8613 744.656 13.6172V13.4609C746.014 13.2168 747.088 11.8887 747.088 10.4238C747.088 8.26562 745.506 6.9082 742.918 6.9082H737.527V21H743.025ZM739.285 8.46094H742.547C744.295 8.46094 745.311 9.29102 745.311 10.7266C745.311 12.2207 744.227 12.9824 742.098 12.9824H739.285V8.46094ZM739.285 19.4473V14.4961H742.596C744.842 14.4961 745.994 15.3262 745.994 16.957C745.994 18.5879 744.881 19.4473 742.762 19.4473H739.285ZM754.41 6.9082H752.652V16.1562C752.652 19.1641 754.752 21.332 758.248 21.332C761.744 21.332 763.844 19.1641 763.844 16.1562V6.9082H762.086V16.0391C762.086 18.168 760.689 19.7109 758.248 19.7109C755.807 19.7109 754.41 18.168 754.41 16.0391V6.9082ZM774.838 21V8.49023H779.379V6.9082H768.539V8.49023H773.08V21H774.838ZM792.824 19.418H785.852V14.5742H792.463V13.0117H785.852V8.49023H792.824V6.9082H784.094V21H792.824V19.418ZM798.008 6.9082V21H802.842C807.031 21 809.492 18.3926 809.492 13.9492C809.492 9.51562 807.021 6.9082 802.842 6.9082H798.008ZM799.766 8.49023H802.725C805.85 8.49023 807.695 10.5215 807.695 13.9688C807.695 17.4062 805.869 19.418 802.725 19.418H799.766V8.49023ZM827.604 21V8.49023H832.145V6.9082H821.305V8.49023H825.846V21H827.604ZM845.59 19.418H838.617V14.5742H845.229V13.0117H838.617V8.49023H845.59V6.9082H836.859V21H845.59V19.418ZM859.934 21H861.779L856.584 6.9082H854.846L849.65 21H851.496L852.912 16.9668H858.518L859.934 21ZM855.637 9.18359H855.793L858 15.4727H853.43L855.637 9.18359ZM880.137 21V6.9082H878.096L873.271 18.666H873.115L868.291 6.9082H866.25V21H867.891V10.2383H868.008L872.451 21H873.936L878.379 10.2383H878.496V21H880.137ZM885.057 17.3184C885.242 19.75 887.303 21.332 890.291 21.332C893.514 21.332 895.555 19.6816 895.555 17.0938C895.555 15.0234 894.383 13.8906 891.463 13.1582L889.988 12.7676C888.045 12.2695 887.273 11.6348 887.273 10.5312C887.273 9.10547 888.514 8.16797 890.389 8.16797C892.146 8.16797 893.338 9.02734 893.582 10.4727H895.35C895.203 8.19727 893.172 6.57617 890.447 6.57617C887.469 6.57617 885.467 8.19727 885.467 10.5898C885.467 12.5918 886.57 13.7441 889.119 14.3887L890.926 14.8574C892.869 15.3457 893.748 16.1074 893.748 17.3086C893.748 18.7051 892.352 19.7305 890.457 19.7305C888.455 19.7305 887.049 18.793 886.834 17.3184H885.057Z" fill="white"/>
<path d="M328.555 15.4238H332.021L335.039 21H337.1L333.838 15.1504C335.605 14.5938 336.67 13.0703 336.67 11.1074C336.67 8.56836 334.893 6.9082 332.178 6.9082H326.797V21H328.555V15.4238ZM328.555 8.4707H331.943C333.76 8.4707 334.854 9.47656 334.854 11.166C334.854 12.8945 333.828 13.8613 332.021 13.8613H328.555V8.4707ZM350.594 19.418H343.621V14.5742H350.232V13.0117H343.621V8.49023H350.594V6.9082H341.863V21H350.594V19.418ZM369.664 21V6.9082H367.623L362.799 18.666H362.643L357.818 6.9082H355.777V21H357.418V10.2383H357.535L361.979 21H363.463L367.906 10.2383H368.023V21H369.664ZM381.176 6.57617C377.191 6.57617 374.711 9.41797 374.711 13.9492C374.711 18.4609 377.133 21.332 381.176 21.332C385.199 21.332 387.641 18.4512 387.641 13.9492C387.641 9.42773 385.18 6.57617 381.176 6.57617ZM381.176 8.19727C384.057 8.19727 385.834 10.4238 385.834 13.9492C385.834 17.4453 384.066 19.7109 381.176 19.7109C378.246 19.7109 376.518 17.4453 376.518 13.9492C376.518 10.4238 378.305 8.19727 381.176 8.19727ZM397.521 21V8.49023H402.062V6.9082H391.223V8.49023H395.764V21H397.521ZM415.508 19.418H408.535V14.5742H415.146V13.0117H408.535V8.49023H415.508V6.9082H406.777V21H415.508V19.418ZM436.158 9.87695H436.275L439.518 21H441.178L445.016 6.9082H443.18L440.377 18.3633H440.26L437.105 6.9082H435.328L432.174 18.3633H432.057L429.254 6.9082H427.418L431.256 21H432.916L436.158 9.87695ZM455.023 6.57617C451.039 6.57617 448.559 9.41797 448.559 13.9492C448.559 18.4609 450.98 21.332 455.023 21.332C459.047 21.332 461.488 18.4512 461.488 13.9492C461.488 9.42773 459.027 6.57617 455.023 6.57617ZM455.023 8.19727C457.904 8.19727 459.682 10.4238 459.682 13.9492C459.682 17.4453 457.914 19.7109 455.023 19.7109C452.094 19.7109 450.365 17.4453 450.365 13.9492C450.365 10.4238 452.152 8.19727 455.023 8.19727ZM468.293 15.4238H471.76L474.777 21H476.838L473.576 15.1504C475.344 14.5938 476.408 13.0703 476.408 11.1074C476.408 8.56836 474.631 6.9082 471.916 6.9082H466.535V21H468.293V15.4238ZM468.293 8.4707H471.682C473.498 8.4707 474.592 9.47656 474.592 11.166C474.592 12.8945 473.566 13.8613 471.76 13.8613H468.293V8.4707ZM483.359 21V16.0781L485.049 14.2129L490.137 21H492.412L486.26 12.9922L491.895 6.9082H489.688L483.516 13.7539H483.359V6.9082H481.602V21H483.359Z" fill="white"/>
<path d="M517.234 6.9082H513.66V16.1367C513.66 19.3008 516.062 21.3809 519.725 21.3809C523.387 21.3809 525.789 19.3008 525.789 16.1367V6.9082H522.215V15.7559C522.215 17.3965 521.326 18.3633 519.725 18.3633C518.133 18.3633 517.234 17.3965 517.234 15.7559V6.9082ZM530.299 21H534.107L536.803 16.5371H536.988L539.664 21H543.697L539.234 13.9297L543.736 6.9082H539.752L537.203 11.5762H537.018L534.488 6.9082H530.309L534.625 13.8906L530.299 21ZM555.148 6.9082V21H561.066C565.305 21 567.658 18.4414 567.658 13.8125C567.658 9.4082 565.266 6.9082 561.066 6.9082H555.148ZM558.732 9.78906H560.422C562.678 9.78906 564.006 11.2539 564.006 13.8809C564.006 16.6738 562.746 18.1191 560.422 18.1191H558.732V9.78906ZM581.982 18.1191H575.908V15.2383H581.621V12.6016H575.908V9.78906H581.982V6.9082H572.324V21H581.982V18.1191ZM586.424 16.9863C586.482 19.7012 588.729 21.3809 592.293 21.3809C595.984 21.3809 598.23 19.6035 598.23 16.6641C598.23 14.4277 596.98 13.168 594.197 12.6309L592.381 12.2793C590.896 11.9863 590.271 11.5371 590.271 10.7656C590.271 9.82812 591.102 9.23242 592.361 9.23242C593.621 9.23242 594.568 9.92578 594.646 10.9219H597.957C597.898 8.31445 595.613 6.52734 592.312 6.52734C588.914 6.52734 586.707 8.33398 586.707 11.0879C586.707 13.3047 588.035 14.7109 590.613 15.1992L592.469 15.5703C594.08 15.8926 594.695 16.3125 594.695 17.0938C594.695 18.0215 593.777 18.666 592.439 18.666C590.955 18.666 589.93 18.0117 589.842 16.9863H586.424ZM606.529 21V6.9082H602.945V21H606.529ZM624.535 15.1309V13.3145H618.5V15.7754H621.078L621.068 16.0098C620.98 17.4355 619.848 18.3926 618.217 18.3926C616.166 18.3926 614.848 16.6934 614.848 13.9004C614.848 11.1562 616.039 9.51562 618.041 9.51562C619.447 9.51562 620.502 10.2676 620.854 11.5078H624.389C624.037 8.5293 621.479 6.52734 618.041 6.52734C613.812 6.52734 611.195 9.35938 611.195 13.9395C611.195 18.5781 613.803 21.3809 618.139 21.3809C622.123 21.3809 624.535 19.0078 624.535 15.1309ZM632.609 21V12.9922H632.795L638.684 21H641.525V6.9082H638.127V14.8379H637.941L632.072 6.9082H629.211V21H632.609Z" fill="white"/>
<path d="M917.812 21.3809C921.426 21.3809 924.043 19.1055 924.16 15.8828H920.723C920.518 17.3965 919.365 18.3926 917.822 18.3926C915.85 18.3926 914.648 16.6934 914.648 13.9395C914.648 11.1953 915.85 9.51562 917.812 9.51562C919.355 9.51562 920.518 10.5508 920.703 12.084H924.15C924.043 8.89062 921.357 6.52734 917.812 6.52734C913.584 6.52734 910.996 9.34961 910.996 13.9492C910.996 18.5488 913.594 21.3809 917.812 21.3809ZM932.342 16.0684H934.197L936.609 21H940.633L937.82 15.541C939.363 14.8672 940.223 13.2852 940.223 11.5566C940.223 8.64648 938.25 6.9082 934.959 6.9082H928.758V21H932.342V16.0684ZM932.342 9.61328H934.451C935.73 9.61328 936.561 10.3848 936.561 11.5859C936.561 12.8066 935.779 13.5391 934.461 13.5391H932.342V9.61328ZM954.732 18.1191H948.658V15.2383H954.371V12.6016H948.658V9.78906H954.732V6.9082H945.074V21H954.732V18.1191ZM968.783 21H972.689L967.953 6.9082H963.568L958.842 21H962.396L963.305 17.9043H967.904L968.783 21ZM965.531 10.082H965.717L967.23 15.3262H963.988L965.531 10.082ZM982.482 21V9.78906H986.555V6.9082H974.846V9.78906H978.908V21H982.482ZM994.697 21V6.9082H991.113V21H994.697ZM1008.15 21L1012.58 6.9082H1008.71L1006.08 17.2793H1005.9L1003.19 6.9082H999.08L1003.62 21H1008.15ZM1020.53 21V6.9082H1016.95V21H1020.53ZM1032.73 21V9.78906H1036.8V6.9082H1025.09V9.78906H1029.15V21H1032.73ZM1048.85 21V16.1562L1053.7 6.9082H1049.88L1047.16 12.6602H1046.97L1044.23 6.9082H1040.41L1045.28 16.1562V21H1048.85Z" fill="white"/>
<path d="M1204.04 16.9863C1204.1 19.7012 1206.35 21.3809 1209.91 21.3809C1213.61 21.3809 1215.85 19.6035 1215.85 16.6641C1215.85 14.4277 1214.6 13.168 1211.82 12.6309L1210 12.2793C1208.52 11.9863 1207.89 11.5371 1207.89 10.7656C1207.89 9.82812 1208.72 9.23242 1209.98 9.23242C1211.24 9.23242 1212.19 9.92578 1212.27 10.9219H1215.58C1215.52 8.31445 1213.23 6.52734 1209.93 6.52734C1206.54 6.52734 1204.33 8.33398 1204.33 11.0879C1204.33 13.3047 1205.66 14.7109 1208.23 15.1992L1210.09 15.5703C1211.7 15.8926 1212.32 16.3125 1212.32 17.0938C1212.32 18.0215 1211.4 18.666 1210.06 18.666C1208.58 18.666 1207.55 18.0117 1207.46 16.9863H1204.04ZM1224.14 6.9082H1220.57V16.1367C1220.57 19.3008 1222.97 21.3809 1226.63 21.3809C1230.29 21.3809 1232.7 19.3008 1232.7 16.1367V6.9082H1229.12V15.7559C1229.12 17.3965 1228.23 18.3633 1226.63 18.3633C1225.04 18.3633 1224.14 17.3965 1224.14 15.7559V6.9082ZM1237.4 16.9863C1237.46 19.7012 1239.71 21.3809 1243.27 21.3809C1246.96 21.3809 1249.21 19.6035 1249.21 16.6641C1249.21 14.4277 1247.96 13.168 1245.17 12.6309L1243.36 12.2793C1241.87 11.9863 1241.25 11.5371 1241.25 10.7656C1241.25 9.82812 1242.08 9.23242 1243.34 9.23242C1244.6 9.23242 1245.54 9.92578 1245.62 10.9219H1248.93C1248.88 8.31445 1246.59 6.52734 1243.29 6.52734C1239.89 6.52734 1237.68 8.33398 1237.68 11.0879C1237.68 13.3047 1239.01 14.7109 1241.59 15.1992L1243.45 15.5703C1245.06 15.8926 1245.67 16.3125 1245.67 17.0938C1245.67 18.0215 1244.75 18.666 1243.42 18.666C1241.93 18.666 1240.91 18.0117 1240.82 16.9863H1237.4ZM1253.92 6.9082V21H1257.51V16.8691H1259.88C1263.01 16.8691 1265.17 14.9062 1265.17 11.9082C1265.17 8.88086 1263.12 6.9082 1260.09 6.9082H1253.92ZM1257.51 9.66211H1259.15C1260.66 9.66211 1261.55 10.4336 1261.55 11.918C1261.55 13.3828 1260.65 14.1641 1259.13 14.1641H1257.51V9.66211ZM1279.47 18.1191H1273.39V15.2383H1279.11V12.6016H1273.39V9.78906H1279.47V6.9082H1269.81V21H1279.47V18.1191ZM1287.92 21V12.9922H1288.11L1294 21H1296.84V6.9082H1293.44V14.8379H1293.25L1287.38 6.9082H1284.52V21H1287.92ZM1301.55 16.9863C1301.61 19.7012 1303.86 21.3809 1307.42 21.3809C1311.11 21.3809 1313.36 19.6035 1313.36 16.6641C1313.36 14.4277 1312.11 13.168 1309.33 12.6309L1307.51 12.2793C1306.03 11.9863 1305.4 11.5371 1305.4 10.7656C1305.4 9.82812 1306.23 9.23242 1307.49 9.23242C1308.75 9.23242 1309.7 9.92578 1309.78 10.9219H1313.09C1313.03 8.31445 1310.74 6.52734 1307.44 6.52734C1304.04 6.52734 1301.84 8.33398 1301.84 11.0879C1301.84 13.3047 1303.16 14.7109 1305.74 15.1992L1307.6 15.5703C1309.21 15.8926 1309.82 16.3125 1309.82 17.0938C1309.82 18.0215 1308.91 18.666 1307.57 18.666C1306.08 18.666 1305.06 18.0117 1304.97 16.9863H1301.55ZM1327.73 18.1191H1321.66V15.2383H1327.37V12.6016H1321.66V9.78906H1327.73V6.9082H1318.07V21H1327.73V18.1191Z" fill="white"/>
<path d="M1069.12 17.3184C1069.31 19.75 1071.37 21.332 1074.36 21.332C1077.58 21.332 1079.62 19.6816 1079.62 17.0938C1079.62 15.0234 1078.45 13.8906 1075.53 13.1582L1074.05 12.7676C1072.11 12.2695 1071.34 11.6348 1071.34 10.5312C1071.34 9.10547 1072.58 8.16797 1074.46 8.16797C1076.21 8.16797 1077.4 9.02734 1077.65 10.4727H1079.42C1079.27 8.19727 1077.24 6.57617 1074.51 6.57617C1071.54 6.57617 1069.53 8.19727 1069.53 10.5898C1069.53 12.5918 1070.64 13.7441 1073.19 14.3887L1074.99 14.8574C1076.94 15.3457 1077.81 16.1074 1077.81 17.3086C1077.81 18.7051 1076.42 19.7305 1074.52 19.7305C1072.52 19.7305 1071.12 18.793 1070.9 17.3184H1069.12ZM1089.97 21V8.49023H1094.51V6.9082H1083.67V8.49023H1088.21V21H1089.97ZM1100.98 15.4238H1104.45L1107.47 21H1109.53L1106.27 15.1504C1108.04 14.5938 1109.1 13.0703 1109.1 11.1074C1109.1 8.56836 1107.32 6.9082 1104.61 6.9082H1099.23V21H1100.98V15.4238ZM1100.98 8.4707H1104.37C1106.19 8.4707 1107.28 9.47656 1107.28 11.166C1107.28 12.8945 1106.26 13.8613 1104.45 13.8613H1100.98V8.4707ZM1123.45 21H1125.3L1120.1 6.9082H1118.37L1113.17 21H1115.02L1116.43 16.9668H1122.04L1123.45 21ZM1119.16 9.18359H1119.31L1121.52 15.4727H1116.95L1119.16 9.18359ZM1133.53 21V8.49023H1138.07V6.9082H1127.23V8.49023H1131.77V21H1133.53ZM1151.52 19.418H1144.54V14.5742H1151.15V13.0117H1144.54V8.49023H1151.52V6.9082H1142.79V21H1151.52V19.418ZM1168.53 15.5508V13.832H1162.81V15.375H1166.78V15.7168C1166.78 18.0996 1165.07 19.7109 1162.55 19.7109C1159.72 19.7109 1157.96 17.5039 1157.96 13.9492C1157.96 10.4434 1159.75 8.19727 1162.54 8.19727C1164.63 8.19727 1166.04 9.20312 1166.65 11.1074H1168.44C1167.93 8.31445 1165.66 6.57617 1162.54 6.57617C1158.68 6.57617 1156.15 9.49609 1156.15 13.9492C1156.15 18.4609 1158.64 21.332 1162.54 21.332C1166.14 21.332 1168.53 19.0273 1168.53 15.5508ZM1178.99 21V14.9355L1183.99 6.9082H1181.99L1178.19 13.168H1178.04L1174.24 6.9082H1172.23L1177.23 14.9355V21H1178.99Z" fill="white"/>
<path d="M1360.62 15.5508V13.832H1354.91V15.375H1358.88V15.7168C1358.88 18.0996 1357.17 19.7109 1354.65 19.7109C1351.81 19.7109 1350.06 17.5039 1350.06 13.9492C1350.06 10.4434 1351.84 8.19727 1354.64 8.19727C1356.73 8.19727 1358.14 9.20312 1358.75 11.1074H1360.54C1360.03 8.31445 1357.76 6.57617 1354.64 6.57617C1350.78 6.57617 1348.25 9.49609 1348.25 13.9492C1348.25 18.4609 1350.74 21.332 1354.64 21.332C1358.24 21.332 1360.62 19.0273 1360.62 15.5508ZM1367.5 15.4238H1370.96L1373.98 21H1376.04L1372.78 15.1504C1374.55 14.5938 1375.61 13.0703 1375.61 11.1074C1375.61 8.56836 1373.83 6.9082 1371.12 6.9082H1365.74V21H1367.5V15.4238ZM1367.5 8.4707H1370.88C1372.7 8.4707 1373.79 9.47656 1373.79 11.166C1373.79 12.8945 1372.77 13.8613 1370.96 13.8613H1367.5V8.4707ZM1386.72 6.57617C1382.74 6.57617 1380.26 9.41797 1380.26 13.9492C1380.26 18.4609 1382.68 21.332 1386.72 21.332C1390.75 21.332 1393.19 18.4512 1393.19 13.9492C1393.19 9.42773 1390.73 6.57617 1386.72 6.57617ZM1386.72 8.19727C1389.6 8.19727 1391.38 10.4238 1391.38 13.9492C1391.38 17.4453 1389.61 19.7109 1386.72 19.7109C1383.79 19.7109 1382.06 17.4453 1382.06 13.9492C1382.06 10.4238 1383.85 8.19727 1386.72 8.19727ZM1405.47 9.87695H1405.59L1408.83 21H1410.49L1414.33 6.9082H1412.49L1409.69 18.3633H1409.57L1406.42 6.9082H1404.64L1401.49 18.3633H1401.37L1398.57 6.9082H1396.73L1400.57 21H1402.23L1405.47 9.87695ZM1424.42 21V8.49023H1428.96V6.9082H1418.12V8.49023H1422.67V21H1424.42ZM1444.93 21V6.9082H1443.17V13.002H1435.44V6.9082H1433.68V21H1435.44V14.584H1443.17V21H1444.93Z" fill="white"/>
</svg>
